# xmcd CD database file
#
# Track frame offsets:
#	150
#	11462
#	28522
#	45482
#	60962
#	76675
#	97855
#	119977
#	133567
#	149197
#	171257
#
# Disc length: 2456 seconds
#
# Revision: 1
# Processed by: cddbd v1.4PL0 Copyright (c) Steve Scherf et al.
# Submitted via: CDex 1.50Beta7
#
DISCID=8b09960b
DTITLE=Waso - Live in Laren
DYEAR=1980
DGENRE=Jazz
TTITLE0=Douce ambiance
TTITLE1=Georgia on my mind
TTITLE2=Sugar
TTITLE3=Si tu savais
TTITLE4=You took advantage of me
TTITLE5=Summertime
TTITLE6=Blues en mineur
TTITLE7=Clair de lune
TTITLE8=It had to be you
TTITLE9=Nuages
TTITLE10=Les danseur de Charleston
EXTD=YEAR: 1980
EXTT0=
EXTT1=
EXTT2=
EXTT3=
EXTT4=
EXTT5=
EXTT6=
EXTT7=
EXTT8=
EXTT9=
EXTT10=
PLAYORDER=
